<svg xmlns="http://www.w3.org/2000/svg" viewBox="0 0 1520 1130" width="1520" height="1130" font-family="-apple-system,Segoe UI,Helvetica,Arial,sans-serif"><title>2027 Autonomous Navigation: workstream pipeline</title><defs><marker id="m0" viewBox="0 0 10 10" refX="8" refY="5" markerWidth="7" markerHeight="7" orient="auto-start-reverse"><path d="M0,0 L10,5 L0,10 z" fill="#555"/></marker><marker id="m1" viewBox="0 0 10 10" refX="8" refY="5" markerWidth="7" markerHeight="7" orient="auto-start-reverse"><path d="M0,0 L10,5 L0,10 z" fill="#6c757d"/></marker><marker id="m2" viewBox="0 0 10 10" refX="8" refY="5" markerWidth="7" markerHeight="7" orient="auto-start-reverse"><path d="M0,0 L10,5 L0,10 z" fill="#d62828"/></marker><marker id="m3" viewBox="0 0 10 10" refX="8" refY="5" markerWidth="7" markerHeight="7" orient="auto-start-reverse"><path d="M0,0 L10,5 L0,10 z" fill="#2b7a3d"/></marker><marker id="m4" viewBox="0 0 10 10" refX="8" refY="5" markerWidth="7" markerHeight="7" orient="auto-start-reverse"><path d="M0,0 L10,5 L0,10 z" fill="#1d4ed8"/></marker><marker id="m5" viewBox="0 0 10 10" refX="8" refY="5" markerWidth="7" markerHeight="7" orient="auto-start-reverse"><path d="M0,0 L10,5 L0,10 z" fill="#7a5cc0"/></marker><marker id="m6" viewBox="0 0 10 10" refX="8" refY="5" markerWidth="7" markerHeight="7" orient="auto-start-reverse"><path d="M0,0 L10,5 L0,10 z" fill="#b8860b"/></marker></defs><rect width="1520" height="1130" fill="#ffffff"/><text x="20" y="30" font-size="19" font-weight="bold" fill="#111" text-anchor="start" >2027 Autonomous Navigation · who does what, what goes in, what comes out</text><text x="20" y="50" font-size="11.5" font-weight="normal" fill="#555" text-anchor="start" >Read left → right = camera-only → IMU → GPS. Top-to-bottom lanes = one person each. Every lane can start today using its own stand-in input.</text><rect x="1000" y="12" width="14" height="14" rx="7" fill="#d62828"/><text x="1020" y="23" font-size="11" font-weight="normal" fill="#333" text-anchor="start" >LIVE hardware</text><rect x="1250" y="12" width="14" height="14" rx="7" fill="#2b7a3d"/><text x="1270" y="23" font-size="11" font-weight="normal" fill="#333" text-anchor="start" >RECORDED / files</text><rect x="1000" y="32" width="14" height="14" rx="7" fill="#6c757d"/><text x="1020" y="43" font-size="11" font-weight="normal" fill="#333" text-anchor="start" >SYNTHETIC / fixture</text><rect x="1250" y="32" width="14" height="14" rx="7" fill="#8d6e63"/><text x="1270" y="43" font-size="11" font-weight="normal" fill="#333" text-anchor="start" >MEASURED by hand</text><path d="M1000,53 H1036" stroke="#444" stroke-width="2"/><text x="1044" y="57" font-size="11" font-weight="normal" fill="#222" text-anchor="start" >data handoff</text><path d="M1150,53 H1186" stroke="#444" stroke-width="2" stroke-dasharray="7 5"/><text x="1194" y="57" font-size="11" font-weight="normal" fill="#222" text-anchor="start" >optional / later</text><rect x="265" y="66" width="705" height="24" rx="5" fill="#eceff3"/><text x="617.5" y="83" font-size="11.5" font-weight="bold" fill="#333" text-anchor="middle" >PHASE 1 · CAMERA-ONLY (ZED RGB-D + visual odometry)</text><rect x="1000" y="66" width="215" height="24" rx="5" fill="#eceff3"/><text x="1107.5" y="83" font-size="11.5" font-weight="bold" fill="#555" text-anchor="middle" >PHASE 2 · + IMU</text><rect x="1245" y="66" width="215" height="24" rx="5" fill="#eceff3"/><text x="1352.5" y="83" font-size="11.5" font-weight="bold" fill="#777" text-anchor="middle" >PHASE 3 · + GPS</text><rect x="250" y="100" width="1225" height="210" rx="10" fill="#f4f0fb" stroke="#7a5cc0" stroke-width="1.5"/><text x="262" y="120" font-size="12.5" font-weight="bold" fill="#7a5cc0" text-anchor="start" >HEDGIE · offline SLAM &amp; semantic maps  (works on files only: no camera, no ROS needed)</text><rect x="250" y="350" width="1225" height="210" rx="10" fill="#e9f6f4" stroke="#1f8a7e" stroke-width="1.5"/><text x="262" y="370" font-size="12.5" font-weight="bold" fill="#1f8a7e" text-anchor="start" >WOBBLES · sensors, TF, recording  (the data hub: everyone else depends on this output)</text><rect x="250" y="600" width="1225" height="210" rx="10" fill="#fdf4e3" stroke="#c27a00" stroke-width="1.5"/><text x="392" y="620" font-size="12.5" font-weight="bold" fill="#c27a00" text-anchor="start" >BEDRAWN · maps, costmaps, Nav2  (replay / simulation only, motors OFF)</text><path d="M985,94 V812" stroke="#aab" stroke-width="1.2" stroke-dasharray="3 5"/><path d="M1230,94 V812" stroke="#aab" stroke-width="1.2" stroke-dasharray="3 5"/><rect x="265" y="146" width="215" height="140" rx="8" fill="#fff" stroke="#7a5cc0" stroke-width="2"/><path d="M265,170 V154 a8,8 0 0 1 8,-8 H472 a8,8 0 0 1 8,8 V170 Z" fill="#7a5cc0" /><text x="273" y="162" font-size="12.5" font-weight="bold" fill="#fff" text-anchor="start" >1  Load + baseline report</text><rect x="273" y="176" width="97" height="16" rx="8" fill="#2b7a3d"/><text x="321.3" y="187.5" font-size="10" font-weight="bold" fill="#fff" text-anchor="middle" >IN: FILES only</text><text x="273" y="208" font-size="9.5" font-weight="bold" fill="#7a5cc0" text-anchor="start" >IN</text><text x="295" y="208" font-size="10.5" font-weight="normal" fill="#333" text-anchor="start" >session/ folder: manifest, SVO</text><text x="295" y="221" font-size="10.5" font-weight="normal" fill="#333" text-anchor="start" >or rgb/+depth/, intrinsics,</text><text x="295" y="234" font-size="10.5" font-weight="normal" fill="#333" text-anchor="start" >zed_baseline.tum</text><text x="273" y="252" font-size="9.5" font-weight="bold" fill="#7a5cc0" text-anchor="start" >OUT</text><text x="295" y="252" font-size="10.5" font-weight="600" fill="#111" text-anchor="start" >baseline report + path plot,</text><text x="295" y="265" font-size="10.5" font-weight="600" fill="#111" text-anchor="start" >depth point cloud,</text><text x="295" y="278" font-size="10.5" font-weight="600" fill="#111" text-anchor="start" >BEV occupancy image</text><rect x="510" y="146" width="215" height="140" rx="8" fill="#fff" stroke="#7a5cc0" stroke-width="2"/><path d="M510,170 V154 a8,8 0 0 1 8,-8 H717 a8,8 0 0 1 8,8 V170 Z" fill="#7a5cc0" /><text x="518" y="162" font-size="12.5" font-weight="bold" fill="#fff" text-anchor="start" >2  Offline visual SLAM</text><rect x="518" y="176" width="97" height="16" rx="8" fill="#2b7a3d"/><text x="566.3" y="187.5" font-size="10" font-weight="bold" fill="#fff" text-anchor="middle" >IN: FILES only</text><text x="518" y="208" font-size="9.5" font-weight="bold" fill="#7a5cc0" text-anchor="start" >IN</text><text x="540" y="208" font-size="10.5" font-weight="normal" fill="#333" text-anchor="start" >RGB-D frames + intrinsics</text><text x="540" y="221" font-size="10.5" font-weight="normal" fill="#333" text-anchor="start" >(ZED path = baseline to beat)</text><text x="518" y="239" font-size="9.5" font-weight="bold" fill="#7a5cc0" text-anchor="start" >OUT</text><text x="540" y="239" font-size="10.5" font-weight="600" fill="#111" text-anchor="start" >ORB matches, loop closures,</text><text x="540" y="252" font-size="10.5" font-weight="600" fill="#111" text-anchor="start" >pose_graph.g2o, trajectory.tum,</text><text x="540" y="265" font-size="10.5" font-weight="600" fill="#111" text-anchor="start" >metrics.json vs ZED</text><rect x="755" y="146" width="215" height="140" rx="8" fill="#fff" stroke="#7a5cc0" stroke-width="2"/><path d="M755,170 V154 a8,8 0 0 1 8,-8 H962 a8,8 0 0 1 8,8 V170 Z" fill="#7a5cc0" /><text x="763" y="162" font-size="12.5" font-weight="bold" fill="#fff" text-anchor="start" >3  Dense + semantic map</text><rect x="763" y="176" width="97" height="16" rx="8" fill="#2b7a3d"/><text x="811.3" y="187.5" font-size="10" font-weight="bold" fill="#fff" text-anchor="middle" >IN: FILES only</text><text x="763" y="208" font-size="9.5" font-weight="bold" fill="#7a5cc0" text-anchor="start" >IN</text><text x="785" y="208" font-size="10.5" font-weight="normal" fill="#333" text-anchor="start" >optimized poses + depth,</text><text x="785" y="221" font-size="10.5" font-weight="normal" fill="#333" text-anchor="start" >YOLO masks (moving objects)</text><text x="763" y="239" font-size="9.5" font-weight="bold" fill="#7a5cc0" text-anchor="start" >OUT</text><text x="785" y="239" font-size="10.5" font-weight="600" fill="#111" text-anchor="start" >dense_map.ply, bev_occupancy</text><text x="785" y="252" font-size="10.5" font-weight="600" fill="#111" text-anchor="start" >(free/occupied/unknown/conf),</text><text x="785" y="265" font-size="10.5" font-weight="600" fill="#111" text-anchor="start" >report.md</text><rect x="1000" y="146" width="215" height="140" rx="8" fill="#fff" stroke="#7a5cc0" stroke-width="2" stroke-dasharray="6 4"/><path d="M1000,170 V154 a8,8 0 0 1 8,-8 H1207 a8,8 0 0 1 8,8 V170 Z" fill="#7a5cc0" opacity="0.85"/><text x="1008" y="162" font-size="12.5" font-weight="bold" fill="#fff" text-anchor="start" >IMU: visual vs VI</text><rect x="1008" y="176" width="120" height="16" rx="8" fill="#2b7a3d"/><text x="1068.1" y="187.5" font-size="10" font-weight="bold" fill="#fff" text-anchor="middle" >IN: imu.csv (file)</text><text x="1008" y="208" font-size="9.5" font-weight="bold" fill="#7a5cc0" text-anchor="start" >IN</text><text x="1030" y="208" font-size="10.5" font-weight="normal" fill="#333" text-anchor="start" >imu.csv inside session/</text><text x="1008" y="226" font-size="9.5" font-weight="bold" fill="#7a5cc0" text-anchor="start" >OUT</text><text x="1030" y="226" font-size="10.5" font-weight="600" fill="#111" text-anchor="start" >visual-only vs visual-inertial</text><text x="1030" y="239" font-size="10.5" font-weight="600" fill="#111" text-anchor="start" >metrics: fast motion, turns,</text><text x="1030" y="252" font-size="10.5" font-weight="600" fill="#111" text-anchor="start" >low-texture areas</text><rect x="1245" y="146" width="215" height="140" rx="8" fill="#fff" stroke="#7a5cc0" stroke-width="2" stroke-dasharray="6 4"/><path d="M1245,170 V154 a8,8 0 0 1 8,-8 H1452 a8,8 0 0 1 8,8 V170 Z" fill="#7a5cc0" opacity="0.85"/><text x="1253" y="162" font-size="12.5" font-weight="bold" fill="#fff" text-anchor="start" >GPS: sparse constraint</text><rect x="1253" y="176" width="120" height="16" rx="8" fill="#2b7a3d"/><text x="1313.1" y="187.5" font-size="10" font-weight="bold" fill="#fff" text-anchor="middle" >IN: gps.csv (file)</text><text x="1253" y="208" font-size="9.5" font-weight="bold" fill="#7a5cc0" text-anchor="start" >IN</text><text x="1275" y="208" font-size="10.5" font-weight="normal" fill="#333" text-anchor="start" >gps.csv inside session/</text><text x="1253" y="226" font-size="9.5" font-weight="bold" fill="#7a5cc0" text-anchor="start" >OUT</text><text x="1275" y="226" font-size="10.5" font-weight="600" fill="#111" text-anchor="start" >GPS-aided pose graph,</text><text x="1275" y="239" font-size="10.5" font-weight="600" fill="#111" text-anchor="start" >cross-session relocalization</text><text x="1275" y="252" font-size="10.5" font-weight="600" fill="#111" text-anchor="start" >(GPS = slow, not local motion)</text><rect x="265" y="396" width="215" height="140" rx="8" fill="#fff" stroke="#1f8a7e" stroke-width="2"/><path d="M265,420 V404 a8,8 0 0 1 8,-8 H472 a8,8 0 0 1 8,8 V420 Z" fill="#1f8a7e" /><text x="273" y="412" font-size="12.5" font-weight="bold" fill="#fff" text-anchor="start" >1  ZED wrapper (Jazzy)</text><rect x="273" y="426" width="185" height="16" rx="8" fill="#d62828"/><text x="365.55" y="437.5" font-size="10" font-weight="bold" fill="#fff" text-anchor="middle" >IN: LIVE camera or SVO replay</text><text x="273" y="458" font-size="9.5" font-weight="bold" fill="#1f8a7e" text-anchor="start" >IN</text><text x="295" y="458" font-size="10.5" font-weight="normal" fill="#333" text-anchor="start" >ZED camera over USB, or .svo</text><text x="295" y="471" font-size="10.5" font-weight="normal" fill="#333" text-anchor="start" >file played back (no hardware)</text><text x="273" y="489" font-size="9.5" font-weight="bold" fill="#1f8a7e" text-anchor="start" >OUT</text><text x="295" y="489" font-size="10.5" font-weight="600" fill="#111" text-anchor="start" >ROS 2 topics: RGB, depth, cloud,</text><text x="295" y="502" font-size="10.5" font-weight="600" fill="#111" text-anchor="start" >camera_info, odom, pose,</text><text x="295" y="515" font-size="10.5" font-weight="600" fill="#111" text-anchor="start" >/diagnostics</text><rect x="510" y="396" width="215" height="140" rx="8" fill="#fff" stroke="#1f8a7e" stroke-width="2"/><path d="M510,420 V404 a8,8 0 0 1 8,-8 H717 a8,8 0 0 1 8,8 V420 Z" fill="#1f8a7e" /><text x="518" y="412" font-size="12.5" font-weight="bold" fill="#fff" text-anchor="start" >2  Rover URDF + TF</text><rect x="518" y="426" width="132" height="16" rx="8" fill="#8d6e63"/><text x="584.0" y="437.5" font-size="10" font-weight="bold" fill="#fff" text-anchor="middle" >IN: MEASURED by hand</text><text x="518" y="458" font-size="9.5" font-weight="bold" fill="#1f8a7e" text-anchor="start" >IN</text><text x="540" y="458" font-size="10.5" font-weight="normal" fill="#333" text-anchor="start" >tape-measure of where the</text><text x="540" y="471" font-size="10.5" font-weight="normal" fill="#333" text-anchor="start" >camera is bolted on the rover</text><text x="518" y="489" font-size="9.5" font-weight="bold" fill="#1f8a7e" text-anchor="start" >OUT</text><text x="540" y="489" font-size="10.5" font-weight="600" fill="#111" text-anchor="start" >base_link → camera_link TF,</text><text x="540" y="502" font-size="10.5" font-weight="600" fill="#111" text-anchor="start" >view_frames diagram,</text><text x="540" y="515" font-size="10.5" font-weight="600" fill="#111" text-anchor="start" >one publisher per edge</text><rect x="755" y="396" width="215" height="140" rx="8" fill="#fff" stroke="#1f8a7e" stroke-width="2"/><path d="M755,420 V404 a8,8 0 0 1 8,-8 H962 a8,8 0 0 1 8,8 V420 Z" fill="#1f8a7e" /><text x="763" y="412" font-size="12.5" font-weight="bold" fill="#fff" text-anchor="start" >3  Record + manifest</text><rect x="763" y="426" width="162" height="16" rx="8" fill="#d62828"/><text x="843.75" y="437.5" font-size="10" font-weight="bold" fill="#fff" text-anchor="middle" >IN: LIVE or REPLAY topics</text><text x="763" y="458" font-size="9.5" font-weight="bold" fill="#1f8a7e" text-anchor="start" >IN</text><text x="785" y="458" font-size="10.5" font-weight="normal" fill="#333" text-anchor="start" >topics + SVO stream from</text><text x="785" y="471" font-size="10.5" font-weight="normal" fill="#333" text-anchor="start" >step 1, plus step 2 TF</text><text x="763" y="489" font-size="9.5" font-weight="bold" fill="#1f8a7e" text-anchor="start" >OUT</text><text x="785" y="489" font-size="10.5" font-weight="600" fill="#111" text-anchor="start" >session/: .svo + rosbag2 +</text><text x="785" y="502" font-size="10.5" font-weight="600" fill="#111" text-anchor="start" >manifest.json (intrinsics,</text><text x="785" y="515" font-size="10.5" font-weight="600" fill="#111" text-anchor="start" >checksums, tracking gaps)</text><rect x="1000" y="396" width="215" height="140" rx="8" fill="#fff" stroke="#1f8a7e" stroke-width="2" stroke-dasharray="6 4"/><path d="M1000,420 V404 a8,8 0 0 1 8,-8 H1207 a8,8 0 0 1 8,8 V420 Z" fill="#1f8a7e" opacity="0.85"/><text x="1008" y="412" font-size="12.5" font-weight="bold" fill="#fff" text-anchor="start" >IMU stage</text><rect x="1008" y="426" width="108" height="16" rx="8" fill="#d62828"/><text x="1062.2" y="437.5" font-size="10" font-weight="bold" fill="#fff" text-anchor="middle" >IN: LIVE ZED IMU</text><text x="1008" y="458" font-size="9.5" font-weight="bold" fill="#1f8a7e" text-anchor="start" >IN</text><text x="1030" y="458" font-size="10.5" font-weight="normal" fill="#333" text-anchor="start" >ZED IMU topic + its frame</text><text x="1008" y="476" font-size="9.5" font-weight="bold" fill="#1f8a7e" text-anchor="start" >OUT</text><text x="1030" y="476" font-size="10.5" font-weight="600" fill="#111" text-anchor="start" >bias/noise + axis report,</text><text x="1030" y="489" font-size="10.5" font-weight="600" fill="#111" text-anchor="start" >camera-only vs IMU-fused run,</text><text x="1030" y="502" font-size="10.5" font-weight="600" fill="#111" text-anchor="start" >need robot_localization?</text><rect x="1245" y="396" width="215" height="140" rx="8" fill="#fff" stroke="#1f8a7e" stroke-width="2" stroke-dasharray="6 4"/><path d="M1245,420 V404 a8,8 0 0 1 8,-8 H1452 a8,8 0 0 1 8,8 V420 Z" fill="#1f8a7e" opacity="0.85"/><text x="1253" y="412" font-size="12.5" font-weight="bold" fill="#fff" text-anchor="start" >GPS stage</text><rect x="1253" y="426" width="144" height="16" rx="8" fill="#d62828"/><text x="1324.9" y="437.5" font-size="10" font-weight="bold" fill="#fff" text-anchor="middle" >IN: LIVE GPS NavSatFix</text><text x="1253" y="458" font-size="9.5" font-weight="bold" fill="#1f8a7e" text-anchor="start" >IN</text><text x="1275" y="458" font-size="10.5" font-weight="normal" fill="#333" text-anchor="start" >GPS fix + covariance +</text><text x="1275" y="471" font-size="10.5" font-weight="normal" fill="#333" text-anchor="start" >antenna offset</text><text x="1253" y="489" font-size="9.5" font-weight="bold" fill="#1f8a7e" text-anchor="start" >OUT</text><text x="1275" y="489" font-size="10.5" font-weight="600" fill="#111" text-anchor="start" >ONE global-localization owner,</text><text x="1275" y="502" font-size="10.5" font-weight="600" fill="#111" text-anchor="start" >heading plan,</text><text x="1275" y="515" font-size="10.5" font-weight="600" fill="#111" text-anchor="start" >outdoor repeat-route report</text><rect x="265" y="646" width="215" height="140" rx="8" fill="#fff" stroke="#c27a00" stroke-width="2"/><path d="M265,670 V654 a8,8 0 0 1 8,-8 H472 a8,8 0 0 1 8,8 V670 Z" fill="#c27a00" /><text x="273" y="662" font-size="12.5" font-weight="bold" fill="#fff" text-anchor="start" >1  Depth → LaserScan</text><rect x="273" y="676" width="185" height="16" rx="8" fill="#6c757d"/><text x="365.55" y="687.5" font-size="10" font-weight="bold" fill="#fff" text-anchor="middle" >IN: SYNTHETIC now, REAL later</text><text x="273" y="708" font-size="9.5" font-weight="bold" fill="#c27a00" text-anchor="start" >IN</text><text x="295" y="708" font-size="10.5" font-weight="normal" fill="#333" text-anchor="start" >fake scan / cloud today;</text><text x="295" y="721" font-size="10.5" font-weight="normal" fill="#333" text-anchor="start" >Wobbles' topics (live or bag)</text><text x="295" y="734" font-size="10.5" font-weight="normal" fill="#333" text-anchor="start" >when available</text><text x="273" y="752" font-size="9.5" font-weight="bold" fill="#c27a00" text-anchor="start" >OUT</text><text x="295" y="752" font-size="10.5" font-weight="600" fill="#111" text-anchor="start" >LaserScan or depth slice,</text><text x="295" y="765" font-size="10.5" font-weight="600" fill="#111" text-anchor="start" >synthetic-message tests</text><rect x="510" y="646" width="215" height="140" rx="8" fill="#fff" stroke="#c27a00" stroke-width="2"/><path d="M510,670 V654 a8,8 0 0 1 8,-8 H717 a8,8 0 0 1 8,8 V670 Z" fill="#c27a00" /><text x="518" y="662" font-size="12.5" font-weight="bold" fill="#fff" text-anchor="start" >2  slam_toolbox 2D map</text><rect x="518" y="676" width="120" height="16" rx="8" fill="#6c757d"/><text x="578.1" y="687.5" font-size="10" font-weight="bold" fill="#fff" text-anchor="middle" >IN: scan + odom TF</text><text x="518" y="708" font-size="9.5" font-weight="bold" fill="#c27a00" text-anchor="start" >IN</text><text x="540" y="708" font-size="10.5" font-weight="normal" fill="#333" text-anchor="start" >LaserScan from step 1,</text><text x="540" y="721" font-size="10.5" font-weight="normal" fill="#333" text-anchor="start" >odometry TF</text><text x="518" y="739" font-size="9.5" font-weight="bold" fill="#c27a00" text-anchor="start" >OUT</text><text x="540" y="739" font-size="10.5" font-weight="600" fill="#111" text-anchor="start" >2D occupancy map (save/load),</text><text x="540" y="752" font-size="10.5" font-weight="600" fill="#111" text-anchor="start" >map → odom correction</text><rect x="755" y="646" width="215" height="140" rx="8" fill="#fff" stroke="#c27a00" stroke-width="2"/><path d="M755,670 V654 a8,8 0 0 1 8,-8 H962 a8,8 0 0 1 8,8 V670 Z" fill="#c27a00" /><text x="763" y="662" font-size="12.5" font-weight="bold" fill="#fff" text-anchor="start" >3  Costmaps + Nav2 demo</text><rect x="763" y="676" width="144" height="16" rx="8" fill="#2b7a3d"/><text x="834.9" y="687.5" font-size="10" font-weight="bold" fill="#fff" text-anchor="middle" >IN: REPLAY, motors OFF</text><text x="763" y="708" font-size="9.5" font-weight="bold" fill="#c27a00" text-anchor="start" >IN</text><text x="785" y="708" font-size="10.5" font-weight="normal" fill="#333" text-anchor="start" >saved map, scan, real footprint,</text><text x="785" y="721" font-size="10.5" font-weight="normal" fill="#333" text-anchor="start" >bag replay from Wobbles</text><text x="763" y="739" font-size="9.5" font-weight="bold" fill="#c27a00" text-anchor="start" >OUT</text><text x="785" y="739" font-size="10.5" font-weight="600" fill="#111" text-anchor="start" >local + global costmaps in RViz,</text><text x="785" y="752" font-size="10.5" font-weight="600" fill="#111" text-anchor="start" >no-motors goal reached,</text><text x="785" y="765" font-size="10.5" font-weight="600" fill="#111" text-anchor="start" >handoff doc + launch files</text><rect x="1000" y="646" width="215" height="140" rx="8" fill="#fff" stroke="#c27a00" stroke-width="2" stroke-dasharray="6 4"/><path d="M1000,670 V654 a8,8 0 0 1 8,-8 H1207 a8,8 0 0 1 8,8 V670 Z" fill="#c27a00" opacity="0.85"/><text x="1008" y="662" font-size="12.5" font-weight="bold" fill="#fff" text-anchor="start" >IMU: robust costmaps</text><rect x="1008" y="676" width="138" height="16" rx="8" fill="#6c757d"/><text x="1076.95" y="687.5" font-size="10" font-weight="bold" fill="#fff" text-anchor="middle" >IN: agreed odom frame</text><text x="1008" y="708" font-size="9.5" font-weight="bold" fill="#c27a00" text-anchor="start" >IN</text><text x="1030" y="708" font-size="10.5" font-weight="normal" fill="#333" text-anchor="start" >IMU-stage odometry frame</text><text x="1030" y="721" font-size="10.5" font-weight="normal" fill="#333" text-anchor="start" >from Wobbles</text><text x="1008" y="739" font-size="9.5" font-weight="bold" fill="#c27a00" text-anchor="start" >OUT</text><text x="1030" y="739" font-size="10.5" font-weight="600" fill="#111" text-anchor="start" >pitch/roll + bad-depth filter,</text><text x="1030" y="752" font-size="10.5" font-weight="600" fill="#111" text-anchor="start" >tracking-loss / relocalization</text><text x="1030" y="765" font-size="10.5" font-weight="600" fill="#111" text-anchor="start" >test results</text><rect x="1245" y="646" width="215" height="140" rx="8" fill="#fff" stroke="#c27a00" stroke-width="2" stroke-dasharray="6 4"/><path d="M1245,670 V654 a8,8 0 0 1 8,-8 H1452 a8,8 0 0 1 8,8 V670 Z" fill="#c27a00" opacity="0.85"/><text x="1253" y="662" font-size="12.5" font-weight="bold" fill="#fff" text-anchor="start" >GPS: outdoor costmaps</text><rect x="1253" y="676" width="173" height="16" rx="8" fill="#d62828"/><text x="1339.65" y="687.5" font-size="10" font-weight="bold" fill="#fff" text-anchor="middle" >IN: Wobbles' ONE global src</text><text x="1253" y="708" font-size="9.5" font-weight="bold" fill="#c27a00" text-anchor="start" >IN</text><text x="1275" y="708" font-size="10.5" font-weight="normal" fill="#333" text-anchor="start" >the single approved global</text><text x="1275" y="721" font-size="10.5" font-weight="normal" fill="#333" text-anchor="start" >localization source</text><text x="1253" y="739" font-size="9.5" font-weight="bold" fill="#c27a00" text-anchor="start" >OUT</text><text x="1275" y="739" font-size="10.5" font-weight="600" fill="#111" text-anchor="start" >outdoor waypoint validation,</text><text x="1275" y="752" font-size="10.5" font-weight="600" fill="#111" text-anchor="start" >no costmap jumps on global</text><text x="1275" y="765" font-size="10.5" font-weight="600" fill="#111" text-anchor="start" >corrections</text><path d="M482,216 H507" fill="none" stroke="#555" stroke-width="2" marker-end="url(#m0)"/><path d="M727,216 H752" fill="none" stroke="#555" stroke-width="2" marker-end="url(#m0)"/><path d="M972,216 H997" fill="none" stroke="#555" stroke-width="2" stroke-dasharray="7 5" marker-end="url(#m0)"/><path d="M1217,216 H1242" fill="none" stroke="#555" stroke-width="2" stroke-dasharray="7 5" marker-end="url(#m0)"/><path d="M482,466 H507" fill="none" stroke="#555" stroke-width="2" marker-end="url(#m0)"/><path d="M727,466 H752" fill="none" stroke="#555" stroke-width="2" marker-end="url(#m0)"/><path d="M972,466 H997" fill="none" stroke="#555" stroke-width="2" stroke-dasharray="7 5" marker-end="url(#m0)"/><path d="M1217,466 H1242" fill="none" stroke="#555" stroke-width="2" stroke-dasharray="7 5" marker-end="url(#m0)"/><path d="M482,716 H507" fill="none" stroke="#555" stroke-width="2" marker-end="url(#m0)"/><path d="M727,716 H752" fill="none" stroke="#555" stroke-width="2" marker-end="url(#m0)"/><path d="M972,716 H997" fill="none" stroke="#555" stroke-width="2" stroke-dasharray="7 5" marker-end="url(#m0)"/><path d="M1217,716 H1242" fill="none" stroke="#555" stroke-width="2" stroke-dasharray="7 5" marker-end="url(#m0)"/><rect x="20" y="176" width="205" height="80" rx="8" fill="#6c757d" opacity="0.1"/><rect x="20" y="176" width="205" height="80" rx="8" fill="none" stroke="#6c757d" stroke-width="2.5"/><text x="30" y="195" font-size="12" font-weight="bold" fill="#6c757d" text-anchor="start" >DEV FIXTURE (until real data)</text><text x="30" y="211" font-size="10.5" font-weight="normal" fill="#333" text-anchor="start" >public RGB-D dataset or a</text><text x="30" y="224" font-size="10.5" font-weight="normal" fill="#333" text-anchor="start" >hand-written manifest.json,</text><text x="30" y="237" font-size="10.5" font-weight="normal" fill="#333" text-anchor="start" >labelled as fixture</text><rect x="20" y="400" width="205" height="64" rx="8" fill="#d62828" opacity="0.1"/><rect x="20" y="400" width="205" height="64" rx="8" fill="none" stroke="#d62828" stroke-width="2.5"/><text x="30" y="419" font-size="12" font-weight="bold" fill="#d62828" text-anchor="start" >LIVE HARDWARE</text><text x="30" y="435" font-size="10.5" font-weight="normal" fill="#333" text-anchor="start" >ZED camera + IMU + GPS</text><text x="30" y="448" font-size="10.5" font-weight="normal" fill="#333" text-anchor="start" >on the rover / bench</text><rect x="20" y="482" width="205" height="64" rx="8" fill="#2b7a3d" opacity="0.1"/><rect x="20" y="482" width="205" height="64" rx="8" fill="none" stroke="#2b7a3d" stroke-width="2.5"/><text x="30" y="501" font-size="12" font-weight="bold" fill="#2b7a3d" text-anchor="start" >RECORDED (no hardware)</text><text x="30" y="517" font-size="10.5" font-weight="normal" fill="#333" text-anchor="start" >.svo file or rosbag2 from</text><text x="30" y="530" font-size="10.5" font-weight="normal" fill="#333" text-anchor="start" >an earlier run</text><rect x="20" y="676" width="205" height="80" rx="8" fill="#6c757d" opacity="0.1"/><rect x="20" y="676" width="205" height="80" rx="8" fill="none" stroke="#6c757d" stroke-width="2.5"/><text x="30" y="695" font-size="12" font-weight="bold" fill="#6c757d" text-anchor="start" >SYNTHETIC (until real topics)</text><text x="30" y="711" font-size="10.5" font-weight="normal" fill="#333" text-anchor="start" >generated LaserScan /</text><text x="30" y="724" font-size="10.5" font-weight="normal" fill="#333" text-anchor="start" >PointCloud2 test messages</text><path d="M227,216 H262" fill="none" stroke="#6c757d" stroke-width="2" stroke-dasharray="7 5" marker-end="url(#m1)"/><path d="M227,432 H262" fill="none" stroke="#d62828" stroke-width="2" marker-end="url(#m2)"/><path d="M227,514 H262" fill="none" stroke="#2b7a3d" stroke-width="2" marker-end="url(#m3)"/><path d="M227,716 H262" fill="none" stroke="#6c757d" stroke-width="2" stroke-dasharray="7 5" marker-end="url(#m1)"/><path d="M862,394 V330 H372 V289" fill="none" stroke="#2b7a3d" stroke-width="3" marker-end="url(#m3)"/><text x="560" y="324" font-size="11" font-weight="bold" fill="#2b7a3d" text-anchor="middle" >SESSION FOLDER (files on disk): Wobbles → Hedgie</text><path d="M372,538 V643" fill="none" stroke="#1d4ed8" stroke-width="3" marker-end="url(#m4)"/><text x="382" y="580" font-size="11" font-weight="bold" fill="#1d4ed8" text-anchor="start" >REAL ZED TOPICS + TF (live or bag replay): swap in for the synthetic source</text><path d="M862,538 V643" fill="none" stroke="#2b7a3d" stroke-width="3" marker-end="url(#m3)"/><text x="872" y="594" font-size="11" font-weight="bold" fill="#2b7a3d" text-anchor="start" >rosbag2 + manifest REPLAY (no hardware)</text><path d="M862,144 V124 H1497 V832 H617 V789" fill="none" stroke="#7a5cc0" stroke-width="2.5" stroke-dasharray="7 5" marker-end="url(#m5)"/><text x="1000" y="120" font-size="11" font-weight="bold" fill="#7a5cc0" text-anchor="start" >OFFLINE MAP EXPORT (optional, later): Hedgie → Bedrawn</text><text x="1480" y="826" font-size="11" font-weight="bold" fill="#7a5cc0" text-anchor="end" >map candidate for Bedrawn's map / static layer ←</text><text x="20" y="872" font-size="14" font-weight="bold" fill="#111" text-anchor="start" >WORK TOGETHER · the five sync points, in order</text><rect x="20" y="882" width="270" height="86" rx="8" fill="#fff8e6" stroke="#b8860b" stroke-width="2"/><text x="30" y="902" font-size="12.5" font-weight="bold" fill="#7a5800" text-anchor="start" >1  Kick-off (before coding)</text><text x="30" y="920" font-size="11" font-weight="normal" fill="#333" text-anchor="start" >one small skeleton PR from main,</text><text x="30" y="934" font-size="11" font-weight="normal" fill="#333" text-anchor="start" >agree manifest schema + TF</text><text x="30" y="948" font-size="11" font-weight="normal" fill="#333" text-anchor="start" >rule (one publisher per arrow)</text><path d="M292,925 H314" fill="none" stroke="#b8860b" stroke-width="2" marker-end="url(#m6)"/><rect x="316" y="882" width="270" height="86" rx="8" fill="#fff8e6" stroke="#b8860b" stroke-width="2"/><text x="326" y="902" font-size="12.5" font-weight="bold" fill="#7a5800" text-anchor="start" >2  Swap stand-ins for real</text><text x="326" y="920" font-size="11" font-weight="normal" fill="#333" text-anchor="start" >Hedgie loads Wobbles' first real</text><text x="326" y="934" font-size="11" font-weight="normal" fill="#333" text-anchor="start" >session; Bedrawn swaps the</text><text x="326" y="948" font-size="11" font-weight="normal" fill="#333" text-anchor="start" >synthetic scan for ZED topics</text><path d="M588,925 H610" fill="none" stroke="#b8860b" stroke-width="2" marker-end="url(#m6)"/><rect x="612" y="882" width="270" height="86" rx="8" fill="#fff8e6" stroke="#b8860b" stroke-width="2"/><text x="622" y="902" font-size="12.5" font-weight="bold" fill="#7a5800" text-anchor="start" >3  Joint no-motors demo</text><text x="622" y="920" font-size="11" font-weight="normal" fill="#333" text-anchor="start" >replay session → localization →</text><text x="622" y="934" font-size="11" font-weight="normal" fill="#333" text-anchor="start" >costmaps → Nav2 goal in RViz,</text><text x="622" y="948" font-size="11" font-weight="normal" fill="#333" text-anchor="start" >plus a view_frames TF audit</text><path d="M884,925 H906" fill="none" stroke="#b8860b" stroke-width="2" marker-end="url(#m6)"/><rect x="908" y="882" width="270" height="86" rx="8" fill="#fff8e6" stroke="#b8860b" stroke-width="2"/><text x="918" y="902" font-size="12.5" font-weight="bold" fill="#7a5800" text-anchor="start" >4  IMU decision</text><text x="918" y="920" font-size="11" font-weight="normal" fill="#333" text-anchor="start" >matched runs, camera-only vs</text><text x="918" y="934" font-size="11" font-weight="normal" fill="#333" text-anchor="start" >IMU-fused; agree the local</text><text x="918" y="948" font-size="11" font-weight="normal" fill="#333" text-anchor="start" >odometry owner</text><path d="M1180,925 H1202" fill="none" stroke="#b8860b" stroke-width="2" marker-end="url(#m6)"/><rect x="1204" y="882" width="270" height="86" rx="8" fill="#fff8e6" stroke="#b8860b" stroke-width="2"/><text x="1214" y="902" font-size="12.5" font-weight="bold" fill="#7a5800" text-anchor="start" >5  GPS decision + outdoor run</text><text x="1214" y="920" font-size="11" font-weight="normal" fill="#333" text-anchor="start" >pick ONE global owner (ZED GNSS</text><text x="1214" y="934" font-size="11" font-weight="normal" fill="#333" text-anchor="start" >vs robot_localization + navsat);</text><text x="1214" y="948" font-size="11" font-weight="normal" fill="#333" text-anchor="start" >outdoor waypoint run</text><text x="20" y="1000" font-size="14" font-weight="bold" fill="#111" text-anchor="start" >TF CONTRACT · every arrow has exactly ONE publisher (two publishers of map → odom = rover 'jumps')</text><rect x="30" y="1022" width="150" height="36" rx="18" fill="#e8eef9" stroke="#1d4ed8" stroke-width="2"/><text x="105" y="1045" font-size="13" font-weight="bold" fill="#1d4ed8" text-anchor="middle" >map</text><path d="M182,1040 H327" fill="none" stroke="#1d4ed8" stroke-width="2.5" marker-end="url(#m4)"/><text x="255.0" y="1020" font-size="10" font-weight="normal" fill="#222" text-anchor="start" ></text><text x="255.0" y="1078" font-size="11" font-weight="bold" fill="#333" text-anchor="middle" >ONE owner only</text><text x="255.0" y="1092" font-size="10.5" font-weight="normal" fill="#555" text-anchor="middle" >(agree first; GPS stage decides)</text><rect x="330" y="1022" width="150" height="36" rx="18" fill="#e8eef9" stroke="#1d4ed8" stroke-width="2"/><text x="405" y="1045" font-size="13" font-weight="bold" fill="#1d4ed8" text-anchor="middle" >odom</text><path d="M482,1040 H627" fill="none" stroke="#1d4ed8" stroke-width="2.5" marker-end="url(#m4)"/><text x="555.0" y="1020" font-size="10" font-weight="normal" fill="#222" text-anchor="start" ></text><text x="555.0" y="1078" font-size="11" font-weight="bold" fill="#333" text-anchor="middle" >VIO / IMU fusion</text><text x="555.0" y="1092" font-size="10.5" font-weight="normal" fill="#555" text-anchor="middle" >(decided in IMU stage)</text><rect x="630" y="1022" width="150" height="36" rx="18" fill="#e8eef9" stroke="#1d4ed8" stroke-width="2"/><text x="705" y="1045" font-size="13" font-weight="bold" fill="#1d4ed8" text-anchor="middle" >base_link</text><path d="M782,1040 H927" fill="none" stroke="#1d4ed8" stroke-width="2.5" marker-end="url(#m4)"/><text x="855.0" y="1020" font-size="10" font-weight="normal" fill="#222" text-anchor="start" ></text><text x="855.0" y="1078" font-size="11" font-weight="bold" fill="#333" text-anchor="middle" >Wobbles URDF</text><text x="855.0" y="1092" font-size="10.5" font-weight="normal" fill="#555" text-anchor="middle" >(static, measured)</text><rect x="930" y="1022" width="150" height="36" rx="18" fill="#e8eef9" stroke="#1d4ed8" stroke-width="2"/><text x="1005" y="1045" font-size="13" font-weight="bold" fill="#1d4ed8" text-anchor="middle" >camera_link</text><path d="M1082,1040 H1227" fill="none" stroke="#1d4ed8" stroke-width="2.5" marker-end="url(#m4)"/><text x="1155.0" y="1020" font-size="10" font-weight="normal" fill="#222" text-anchor="start" ></text><text x="1155.0" y="1078" font-size="11" font-weight="bold" fill="#333" text-anchor="middle" >static, from URDF</text><rect x="1230" y="1022" width="150" height="36" rx="18" fill="#e8eef9" stroke="#1d4ed8" stroke-width="2"/><text x="1305" y="1045" font-size="13" font-weight="bold" fill="#1d4ed8" text-anchor="middle" >imu_link</text><text x="20" y="1118" font-size="11" font-weight="normal" fill="#555" text-anchor="start" >Out of scope: no motor commands. Legacy main.py stays a standalone ZED prototype. Proof = RViz + replay/simulation, not a live drive.</text></svg>